<svg xmlns="http://www.w3.org/2000/svg" width="512" height="512" viewBox="0 0 512 512">
<rect width="512" height="512" fill="#070B14"/>
<path d="M72 32H32v40 M440 32h40v40 M480 440v40h-40 M72 480H32v-40" fill="none" stroke="#19354A" stroke-width="2"/>
<circle cx="256" cy="256" r="150" fill="#0D1D2A" stroke="#31566A" stroke-width="3"/>
<path d="M118 256h276 M256 118v276" stroke="#19354A" stroke-width="2"/>
<circle cx="256" cy="256" r="110" fill="none" stroke="#19354A" stroke-width="2"/>
<path d="m256 146 96 110-96 110-96-110Z" fill="#112F3C" stroke="#71E5DC" stroke-width="3"/>
<path d="M179 256h27l16-40 22 81 23-104 23 80 16-17h27" stroke="#71E5DC" stroke-width="4" fill="none" stroke-linejoin="round"/>
<path d="M126 159v-33h33 M353 126h33v33 M386 353v33h-33 M159 386h-33v-33" fill="none" stroke="#71E5DC" stroke-width="4"/>
<circle cx="256" cy="256" r="7" fill="#71E5DC"/>
</svg>
